Genre:Adventure | Fantasy | Horror 
Language:English
IMDb:http://www.imdb.com/title/tt1523367/
Source:DVD


Format : AVI
Format/Info : Audio Video Interleave
File size : 880 MiB
Duration : 1h 29mn
Overall bit rate : 1 379 Kbps


Video
ID : 0
Format : MPEG-4 Visual
Format profile : Advanced Simple@L5
Format settings, BVOP : Yes
Format settings, QPel : No
Format settings, GMC : No warppoints
Format settings, Matrix : Default (H.263)
Muxing mode : Packed bitstream
Codec ID : XVID
Codec ID/Hint : XviD
Duration : 1h 29mn
Bit rate : 921 Kbps
Width : 720 pixels
Height : 400 pixels
Display aspect ratio : 16:9
Frame rate : 23.976 fps
Color space : YUV
Chroma subsampling : 4:2:0
Bit depth : 8 bits
Scan type : Progressive
Bits/(Pixel*Frame) : 0.133
Stream size : 588 MiB (67%)
Writing library : XviD 1.2.1 (UTC 2008-12-04)

Audio
ID : 1
Format : AC-3
Format/Info : Audio Coding 3
Mode extension : CM (complete main)
Codec ID : 2000
Duration : 1h 29mn
Bit rate mode : Constant
Bit rate : 448 Kbps
Channel(s) : 6 channels
Channel positions : Front: L C R, Side: L R, LFE
Sampling rate : 48.0 KHz
Bit depth : 16 bits
Stream size : 286 MiB (32%)
Alignment : Split accross interleaves
Interleave, duration : 42 ms (1.00 video frame)
Interleave, preload duration : 500 ms


Plot:
An expedition led by adventurer DARREN McCALL and funded by the wealthy Harry Vargas braves the impenetrable jungle to retrieve a fabled bejeweled dagger from an ancient burial ground...

Screens:
 
http://www.pix2links.com/images/79458812579999821018.png 
http://www.pix2links.com/images/89633354305690257146.png 
http://www.pix2links.com/images/92563284698605265646.png 
http://www.pix2links.com/images/65552888800295563289.png 
http://www.pix2links.com/images/15196533090746271239.png

Greets:

INK,CRYS,IMAGINE,LKRG,FXG,3Li,FLAWL3SS,TA,iLLUSiON,ViSiON,DTRG SAFCuk009,LU,TheFalcon007,MYSTiC,PrisM,Noir,WBZ,LAP,Rx,Kingdom,SAFCuk009+Fabreezy,HDLiTE,TWiZTED,ExtraTorrentRG.ELEKTRI4KA,MAGNAT,CM8
And to all the other p2p grps past and present.